HIERARCHY
ROOT Hips
{
	OFFSET 0.00000 0.00000 0.00000
	CHANNELS 6 Xposition Yposition Zposition Zrotation Yrotation Xrotation 
	JOINT LHipJoint
	{
		OFFSET 0 0 0
		CHANNELS 3 Zrotation Yrotation Xrotation
		JOINT LeftHip
		{
			OFFSET 1.64577 -1.42384 0.94276
			CHANNELS 3 Zrotation Yrotation Xrotation
			JOINT LeftKnee
			{
				OFFSET 2.11538 -5.81197 0.00000
				CHANNELS 3 Zrotation Yrotation Xrotation
				JOINT LeftAnkle
				{
					OFFSET 2.36541 -6.49893 0.00000
					CHANNELS 3 Zrotation Yrotation Xrotation
					JOINT LeftToe
					{
						OFFSET 0.17759 -0.48793 1.73865
						CHANNELS 3 Zrotation Yrotation Xrotation
						End Site
						{
							OFFSET 0.00000 -0.00000 0.91205
						}
					}
				}
			}
		}
	}
	JOINT RHipJoint
	{
		OFFSET 0 0 0
		CHANNELS 3 Zrotation Yrotation Xrotation
		JOINT RightHip
		{
			OFFSET -1.43750 -1.42384 0.94276
			CHANNELS 3 Zrotation Yrotation Xrotation
			JOINT RightKnee
			{
				OFFSET -2.10480 -5.78291 0.00000
				CHANNELS 3 Zrotation Yrotation Xrotation
				JOINT RightAnkle
				{
					OFFSET -2.34880 -6.45329 0.00000
					CHANNELS 3 Zrotation Yrotation Xrotation
					JOINT RightToe
					{
						OFFSET -0.22842 -0.62757 1.80469
						CHANNELS 3 Zrotation Yrotation Xrotation
						End Site
						{
							OFFSET -0.00000 -0.00000 0.95886
						}
					}
				}
			}
		}
	}
	JOINT lowerback
	{
		OFFSET 0 0 0
		CHANNELS 3 Zrotation Yrotation Xrotation
		JOINT Chest
		{
			OFFSET 0.06217 1.93758 -0.49272
			CHANNELS 3 Zrotation Yrotation Xrotation
			JOINT Chest2
			{
				OFFSET -0.03114 2.03621 -0.05830
				CHANNELS 3 Zrotation Yrotation Xrotation
				JOINT lowerneck
				{
					OFFSET 0 0 0
					CHANNELS 3 Zrotation Yrotation Xrotation
					JOINT Neck
					{
						OFFSET 0.04421 1.41010 0.26562
						CHANNELS 3 Zrotation Yrotation Xrotation
						JOINT Head
						{
							OFFSET -0.13407 1.43847 0.06181
							CHANNELS 3 Zrotation Yrotation Xrotation
							End Site
							{
								OFFSET -0.04980 1.45844 -0.00689
							}
						}
					}
				}
				JOINT LeftCollar
				{
					OFFSET 0 0 0
					CHANNELS 3 Zrotation Yrotation Xrotation
					JOINT LeftShoulder
					{
						OFFSET 2.18382 1.47753 -0.35694
CHANNELS 3 Zrotation Xrotation Yrotation
						JOINT LeftElbow
						{
OFFSET 0 -5.054600 0.000000
CHANNELS 3 Zrotation Xrotation Yrotation
							JOINT LeftWrist
							{
OFFSET 0 -3.390130 0.000000
CHANNELS 3 Zrotation Xrotation Yrotation
								JOINT lhand
								{
									OFFSET 0 0 0
CHANNELS 3 Zrotation Xrotation Yrotation
									JOINT LFingers
									{
OFFSET 0 -0.572420 -0.000000
CHANNELS 3 Zrotation Xrotation Yrotation
										End Site
										{
OFFSET 0 -0.461500 -0.000000
										}
									}
								}
								JOINT LThumb
								{
OFFSET 0 0.000000 0.000000
CHANNELS 3 Zrotation Xrotation Yrotation
									End Site
									{
OFFSET 0 -0.468550 0.468550
									}
								}
							}
						}
					}
				}
				JOINT RightCollar
				{
					OFFSET 0 0 0
					CHANNELS 3 Zrotation Yrotation Xrotation
					JOINT RightShoulder
					{
						OFFSET -2.06033 1.72839 -0.47437
CHANNELS 3 Zrotation Xrotation Yrotation
						JOINT RightElbow
						{
OFFSET 0 -5.070100 0.000000
CHANNELS 3 Zrotation Xrotation Yrotation
							JOINT RightWrist
							{
OFFSET 0 -3.149570 -0.000000
CHANNELS 3 Zrotation Xrotation Yrotation
								JOINT rhand
								{
									OFFSET 0 0 0
CHANNELS 3 Zrotation Xrotation Yrotation
									JOINT RFingers
									{
OFFSET 0 -0.718190 -0.000000
CHANNELS 3 Zrotation Xrotation Yrotation
										End Site
										{
OFFSET 0 -0.579020 -0.000000
										}
									}
								}
								JOINT RThumb
								{
OFFSET 0 0.000000 0.000000
CHANNELS 3 Zrotation Xrotation Yrotation
									End Site
									{
OFFSET 0 -0.587860 0.587860
									}
								}
							}
						}
					}
				}
			}
		}
	}
}
MOTION
Frames: 8
Frame Time: 0.008333333333333333
21.547300 15.156100 -0.611000 -170.858000 -83.668400 167.332000 0.000000 0.000000 0.000000 -16.798500 -15.782300 -2.845500 3.274200 11.126200 32.706600 1.838700 14.466700 -34.252400 0.001200 -0.220900 -0.606900 0.000000 0.000000 0.000000 24.155100 17.790800 -2.663000 -3.023300 -10.732700 31.383600 -2.658100 -19.455500 -42.364500 -1.015700 6.412000 -17.984500 0.412100 -0.823600 5.993500 1.623700 -1.264800 5.036800 1.490100 -0.721500 1.858400 0.606100 -6.067900 -4.426700 1.899700 -8.200400 2.325900 0.270600 -4.051000 1.519500 -0.000000 0.000000 0.000000 5.643100 -8.333700 -43.434200 15.702300 -25.115300 3.518600 18.500500 0.255900 -10.325700 0.000000 0.000000 0.000000 -7.125000 0.000000 0.000000 -7.543700 40.740400 -0.797500 -0.000000 0.000000 0.000000 -1.809900 -3.415600 22.565200 -30.026900 -40.916400 -11.427200 -13.468500 -32.188600 6.655500 0.000000 0.000000 0.000000 7.125000 0.000000 -0.000000 11.194800 36.618500 2.343800
21.545092 15.156310 -0.606597 -171.279923 -83.599496 167.793137 0.000000 0.000000 0.000000 -16.860113 -15.794859 -2.855785 3.272807 11.124151 32.699551 1.837203 14.535179 -34.299809 0.000974 -0.200342 -0.550346 0.000000 0.000000 0.000000 24.115459 17.914082 -2.676165 -3.028515 -10.741100 31.411522 -2.669642 -19.480874 -42.435146 -1.010074 6.394593 -17.933763 0.483199 -0.751522 5.824757 1.514681 -1.165004 5.051311 1.330795 -0.666763 1.960817 0.861031 -4.875248 -4.996959 1.473550 -6.637088 3.384156 0.106923 -3.261904 1.928018 0.000000 0.000000 0.000000 5.861779 -8.030436 -42.455193 15.710955 -25.127131 3.522309 17.635924 0.766227 -10.570656 0.000000 0.000000 0.000000 -7.125000 0.000000 0.000000 -8.342473 40.917389 -0.846508 0.000000 0.000000 0.000000 -1.637909 -3.311102 24.256638 -30.389648 -41.224927 -11.665665 -18.886377 -36.561116 5.692713 0.000000 0.000000 0.000000 7.125000 0.000000 0.000000 6.553407 35.927185 1.465405
21.546223 15.156316 -0.601902 -171.073317 -83.720740 167.621369 0.000000 0.000000 0.000000 -16.878822 -15.871546 -2.877696 3.262073 11.107668 32.643888 1.782748 14.778335 -34.193008 0.007179 -0.520897 -1.431416 0.000000 0.000000 0.000000 24.081882 17.895732 -2.756545 -3.045504 -10.768319 31.502433 -2.722513 -19.309264 -42.525956 -0.922559 6.115939 -17.122287 0.655559 -0.617728 5.684012 1.343834 -0.978080 5.076865 1.048652 -0.564051 2.055612 1.617093 -3.699073 -5.515446 0.881789 -5.117556 4.213723 -0.180150 -2.497919 2.253167 0.000000 0.000000 0.000000 6.183454 -8.041554 -41.785461 15.581198 -24.949479 3.467427 16.639359 1.351122 -10.737459 0.000000 0.000000 0.000000 -7.125000 0.000000 0.000000 -9.244182 40.999659 -0.920448 0.000000 0.000000 0.000000 -1.352265 -3.164060 25.508891 -30.684835 -41.473171 -11.860558 -23.687492 -41.306592 3.973150 0.000000 0.000000 0.000000 7.125000 0.000000 0.000000 2.432893 34.305285 0.630226
21.551653 15.153649 -0.598341 -172.378060 -84.147077 169.011242 0.000000 0.000000 0.000000 -17.109432 -16.018419 -2.993368 3.242720 11.077974 32.543300 1.641578 15.229603 -33.769920 0.051412 -1.456076 -4.004733 0.000000 0.000000 0.000000 23.779067 17.760469 -2.973878 -3.072178 -10.811010 31.645149 -2.782049 -18.957235 -42.504106 -0.611863 5.002629 -13.916936 0.544499 -0.545466 5.597812 1.183526 -0.880491 5.067817 0.941295 -0.513602 2.091380 2.534033 -2.567875 -5.352678 0.090013 -3.628536 4.155583 -0.529918 -1.765195 2.179014 0.000000 0.000000 0.000000 6.409534 -8.146765 -41.028893 15.477066 -24.806517 3.423649 15.138686 2.217025 -10.943733 0.000000 0.000000 0.000000 -7.125000 0.000000 0.000000 -10.593540 41.075221 -1.038503 0.000000 0.000000 0.000000 -1.203549 -2.803394 27.174629 -31.197314 -41.897183 -12.201603 -30.004328 -43.763274 3.448909 0.000000 0.000000 0.000000 7.125000 0.000000 0.000000 -2.778798 33.948006 -0.760080
21.555577 15.153412 -0.597277 -173.295559 -84.405399 169.957347 0.000000 0.000000 0.000000 -17.237325 -16.090247 -3.065462 3.229279 11.057246 32.473150 1.584472 15.234642 -33.444213 0.067932 -1.680800 -4.624326 0.000000 0.000000 0.000000 23.593959 17.663522 -3.092192 -3.090839 -10.840651 31.744409 -2.749289 -19.015911 -42.408211 -0.588221 4.910289 -13.652968 0.443906 -0.416539 5.578521 1.057830 -0.712155 5.127412 0.861730 -0.430282 2.161019 3.361910 -1.506931 -5.058305 -0.693185 -2.218209 3.749362 -0.864870 -1.075447 1.997414 0.000000 0.000000 0.000000 6.618587 -8.269066 -40.314432 15.446579 -24.764620 3.410859 14.937733 2.794294 -10.839736 0.000000 0.000000 0.000000 -7.125000 0.000000 0.000000 -10.746171 40.951909 -1.086899 0.000000 0.000000 0.000000 -1.048207 -2.366009 28.246103 -31.980878 -42.531385 -12.728092 -34.628804 -48.192691 1.895005 0.000000 0.000000 0.000000 7.125000 0.000000 0.000000 -6.477971 32.229661 -2.050157
21.552613 15.152962 -0.596190 -172.189174 -84.571541 168.828643 0.000000 0.000000 0.000000 -17.191496 -16.253081 -3.026369 3.238618 11.071667 32.522128 1.565824 15.310338 -33.401557 0.076048 -1.778963 -4.895256 0.000000 0.000000 0.000000 23.668488 17.530451 -3.054680 -3.084079 -10.829950 31.708489 -2.742436 -19.094092 -42.440658 -0.593600 4.932670 -13.716621 0.606027 -0.227509 5.588712 0.914493 -0.451148 5.133986 0.614133 -0.291636 2.156695 4.360301 -0.703834 -4.704941 -1.494172 -1.161156 3.540572 -1.255728 -0.556205 1.886595 0.000000 0.000000 0.000000 6.954486 -8.171274 -39.859884 15.500834 -24.839209 3.433624 14.824180 2.885648 -10.786299 0.000000 0.000000 0.000000 -7.125000 0.000000 0.000000 -10.833504 40.887638 -1.113374 0.000000 0.000000 0.000000 -0.826256 -1.733862 28.813666 -32.529293 -42.961311 -13.101502 -37.527957 -52.189576 0.050281 0.000000 0.000000 0.000000 7.125000 0.000000 0.000000 -8.577724 29.938985 -3.260844
21.551726 15.151333 -0.596743 -170.241377 -84.926996 166.854987 0.000000 0.000000 0.000000 -17.072317 -16.436660 -3.102632 3.270974 11.121250 32.690018 1.563364 15.226693 -33.313953 0.086031 -1.891878 -5.206987 0.000000 0.000000 0.000000 23.796435 17.335010 -2.938687 -3.055454 -10.784279 31.555703 -2.776370 -19.130169 -42.616007 -0.563759 4.808994 -13.364598 0.810804 -0.098702 5.737889 0.722513 -0.263983 5.082343 0.296205 -0.187352 2.017179 5.249747 0.084115 -4.369054 -1.825693 -0.135231 3.162883 -1.483770 -0.044365 1.743233 0.000000 0.000000 0.000000 7.330846 -8.020598 -39.304472 15.523063 -24.869729 3.442917 14.807922 2.864000 -10.528855 0.000000 0.000000 0.000000 -7.125000 0.000000 0.000000 -10.793476 40.625790 -1.179752 0.000000 0.000000 0.000000 -0.483263 -1.811633 26.289386 -30.693590 -41.480412 -11.866417 -31.196453 -40.827512 4.861438 0.000000 0.000000 0.000000 7.125000 0.000000 0.000000 -3.785949 35.636946 -0.872556
21.551272 15.150762 -0.597774 -165.233344 -85.115490 161.884062 0.000000 0.000000 0.000000 -16.599449 -16.489742 -3.285234 3.301071 11.167141 32.845706 1.537927 15.142201 -33.090169 0.102327 -2.062367 -5.678050 0.000000 0.000000 0.000000 24.249804 17.352593 -2.820549 -3.029005 -10.741882 31.414266 -2.836758 -19.195213 -42.927138 -0.498241 4.524600 -12.557516 1.109237 -0.017913 5.767191 0.741543 -0.147110 5.117039 0.144047 -0.121244 2.037129 5.903278 0.743852 -3.892998 -2.369001 0.755673 2.440530 -1.745849 0.389305 1.472495 0.000000 0.000000 0.000000 7.361460 -7.842907 -38.061034 15.633447 -25.021091 3.489490 14.960878 3.087912 -9.831838 0.000000 0.000000 0.000000 -7.125000 0.000000 0.000000 -10.519890 39.932784 -1.330809 0.000000 0.000000 0.000000 -0.455893 -1.603802 26.114534 -30.163917 -41.033152 -11.517149 -30.496645 -40.864785 4.736991 0.000000 0.000000 0.000000 7.125000 0.000000 0.000000 -3.199212 35.458228 -0.750843
